<?xml version="1.0" standalone="no"?>
<!DOCTYPE svg PUBLIC "-//W3C//DTD SVG 20010904//EN"
 "http://www.w3.org/TR/2001/REC-SVG-20010904/DTD/svg10.dtd">
<svg version="1.0" xmlns="http://www.w3.org/2000/svg"
 width="233.000000pt" height="215.000000pt" viewBox="0 0 233.000000 215.000000"
 preserveAspectRatio="xMidYMid meet">

<g transform="translate(0.000000,215.000000) scale(0.100000,-0.100000)"
fill="#000000" stroke="none">
<path d="M661 2034 c-19 -24 -21 -40 -21 -180 0 -169 7 -198 52 -213 31 -11
53 -6 81 17 15 13 17 36 17 189 0 160 -2 175 -20 193 -30 30 -83 27 -109 -6z"/>
<path d="M1621 2034 c-19 -25 -21 -40 -21 -186 l0 -160 30 -30 c25 -24 36 -29
58 -23 60 15 62 21 62 216 0 172 -1 178 -22 193 -35 25 -83 20 -107 -10z"/>
<path d="M452 1823 c-18 -9 -45 -32 -60 -51 l-27 -35 -3 -716 c-1 -394 0 -726
3 -738 8 -33 65 -94 102 -109 26 -11 166 -14 730 -14 656 0 700 2 738 19 48
22 69 44 90 94 13 31 15 129 15 731 0 467 -3 704 -11 723 -13 34 -55 80 -91
99 -15 8 -52 14 -83 14 l-55 0 0 -82 c0 -65 -4 -89 -19 -112 -36 -55 -102 -71
-161 -41 -45 23 -60 62 -60 155 l0 80 -359 0 -359 0 -4 -91 c-3 -90 -3 -91
-40 -125 -42 -38 -88 -45 -137 -20 -49 26 -61 56 -61 151 l0 85 -57 0 c-33 0
-72 -8 -91 -17z m1508 -973 c0 -389 -3 -536 -12 -555 -25 -56 -8 -55 -758 -55
l-692 0 -29 29 -29 29 0 541 0 541 760 0 760 0 0 -530z"/>
<path d="M572 1143 l3 -118 177 -3 c208 -3 191 -16 186 138 l-3 95 -183 3
-183 2 3 -117z"/>
<path d="M1019 1248 c-1 -12 0 -156 1 -206 l0 -22 178 2 177 3 3 118 3 117
-181 0 c-137 0 -180 -3 -181 -12z"/>
<path d="M1464 1247 c-2 -7 -3 -60 -2 -118 l3 -104 180 0 180 0 0 115 0 115
-178 3 c-141 2 -179 0 -183 -11z"/>
<path d="M570 810 l0 -120 183 2 182 3 0 115 0 115 -182 3 -183 2 0 -120z"/>
<path d="M1020 810 l0 -120 180 0 180 0 0 120 0 120 -180 0 -180 0 0 -120z"/>
<path d="M1464 917 c-2 -7 -3 -60 -2 -118 l3 -104 180 0 180 0 0 115 0 115
-178 3 c-141 2 -179 0 -183 -11z"/>
<path d="M570 480 l0 -120 183 2 182 3 0 115 0 115 -182 3 -183 2 0 -120z"/>
<path d="M1020 480 l0 -120 180 0 180 0 0 120 0 120 -180 0 -180 0 0 -120z"/>
<path d="M1464 587 c-2 -7 -3 -60 -2 -118 l3 -104 180 0 180 0 0 115 0 115
-178 3 c-141 2 -179 0 -183 -11z"/>
</g>
</svg>
